<mxfile host="app.diagrams.net" modified="2021-11-15T03:04:47.974Z" agent="5.0 (Windows NT 10.0; Win64; x64) AppleWebKit/537.36 (KHTML, like Gecko) Chrome/95.0.4638.69 Safari/537.36" etag="iaQiyAkVlFxrjwZ4cXGp" version="15.7.0" type="github">
  <diagram name="Page-1" id="c4acf3e9-155e-7222-9cf6-157b1a14988f">
    <mxGraphModel dx="1888" dy="547" grid="1" gridSize="10" guides="1" tooltips="1" connect="1" arrows="1" fold="1" page="1" pageScale="1" pageWidth="850" pageHeight="1100" background="none" math="0" shadow="0">
      <root>
        <mxCell id="0" />
        <mxCell id="1" parent="0" />
        <mxCell id="wAqun_xBV9L1JCdI_dO6-22" value="Văn phòng" style="whiteSpace=wrap;html=1;align=center;fontSize=12;" vertex="1" parent="1">
          <mxGeometry x="230" y="490" width="100" height="40" as="geometry" />
        </mxCell>
        <mxCell id="wAqun_xBV9L1JCdI_dO6-24" value="Mã số văn phòng" style="ellipse;whiteSpace=wrap;html=1;align=center;fontStyle=4;fontSize=12;" vertex="1" parent="1">
          <mxGeometry x="30" y="390" width="110" height="50" as="geometry" />
        </mxCell>
        <mxCell id="wAqun_xBV9L1JCdI_dO6-25" value="Nhân viên" style="whiteSpace=wrap;html=1;align=center;fontSize=12;" vertex="1" parent="1">
          <mxGeometry x="640" y="490" width="100" height="40" as="geometry" />
        </mxCell>
        <mxCell id="wAqun_xBV9L1JCdI_dO6-26" value="Mã số nhân viên" style="ellipse;whiteSpace=wrap;html=1;align=center;fontStyle=4;fontSize=12;" vertex="1" parent="1">
          <mxGeometry x="450" y="310" width="100" height="40" as="geometry" />
        </mxCell>
        <mxCell id="wAqun_xBV9L1JCdI_dO6-27" value="Họ tên" style="ellipse;whiteSpace=wrap;html=1;align=center;fontSize=12;" vertex="1" parent="1">
          <mxGeometry x="710" y="290" width="100" height="40" as="geometry" />
        </mxCell>
        <mxCell id="wAqun_xBV9L1JCdI_dO6-28" value="Địa chỉ" style="ellipse;shape=doubleEllipse;margin=3;whiteSpace=wrap;html=1;align=center;fontSize=12;" vertex="1" parent="1">
          <mxGeometry x="30" y="540" width="100" height="40" as="geometry" />
        </mxCell>
        <mxCell id="wAqun_xBV9L1JCdI_dO6-29" value="" style="endArrow=none;html=1;rounded=0;fontSize=12;exitX=1;exitY=1;exitDx=0;exitDy=0;entryX=0;entryY=0.25;entryDx=0;entryDy=0;" edge="1" parent="1" source="wAqun_xBV9L1JCdI_dO6-24" target="wAqun_xBV9L1JCdI_dO6-22">
          <mxGeometry relative="1" as="geometry">
            <mxPoint x="360" y="520" as="sourcePoint" />
            <mxPoint x="520" y="520" as="targetPoint" />
          </mxGeometry>
        </mxCell>
        <mxCell id="wAqun_xBV9L1JCdI_dO6-30" value="" style="endArrow=none;html=1;rounded=0;fontSize=12;exitX=0.98;exitY=0.295;exitDx=0;exitDy=0;entryX=0;entryY=0.75;entryDx=0;entryDy=0;exitPerimeter=0;" edge="1" parent="1" source="wAqun_xBV9L1JCdI_dO6-28" target="wAqun_xBV9L1JCdI_dO6-22">
          <mxGeometry relative="1" as="geometry">
            <mxPoint x="210" y="455" as="sourcePoint" />
            <mxPoint x="310" y="510" as="targetPoint" />
          </mxGeometry>
        </mxCell>
        <mxCell id="wAqun_xBV9L1JCdI_dO6-31" value="" style="endArrow=none;html=1;rounded=0;fontSize=12;exitX=1;exitY=1;exitDx=0;exitDy=0;entryX=0.25;entryY=0;entryDx=0;entryDy=0;" edge="1" parent="1" source="wAqun_xBV9L1JCdI_dO6-26" target="wAqun_xBV9L1JCdI_dO6-25">
          <mxGeometry relative="1" as="geometry">
            <mxPoint x="220" y="465" as="sourcePoint" />
            <mxPoint x="320" y="520" as="targetPoint" />
          </mxGeometry>
        </mxCell>
        <mxCell id="wAqun_xBV9L1JCdI_dO6-32" value="" style="endArrow=none;html=1;rounded=0;fontSize=12;exitX=0.75;exitY=0;exitDx=0;exitDy=0;entryX=0.5;entryY=1;entryDx=0;entryDy=0;" edge="1" parent="1" source="wAqun_xBV9L1JCdI_dO6-25" target="wAqun_xBV9L1JCdI_dO6-27">
          <mxGeometry relative="1" as="geometry">
            <mxPoint x="230" y="475" as="sourcePoint" />
            <mxPoint x="330" y="530" as="targetPoint" />
          </mxGeometry>
        </mxCell>
        <mxCell id="wAqun_xBV9L1JCdI_dO6-33" value="Có" style="shape=rhombus;perimeter=rhombusPerimeter;whiteSpace=wrap;html=1;align=center;fontSize=12;" vertex="1" parent="1">
          <mxGeometry x="460" y="490" width="60" height="40" as="geometry" />
        </mxCell>
        <mxCell id="wAqun_xBV9L1JCdI_dO6-34" value="" style="edgeStyle=entityRelationEdgeStyle;fontSize=12;html=1;endArrow=ERmany;rounded=0;entryX=0;entryY=0.5;entryDx=0;entryDy=0;exitX=1;exitY=0.5;exitDx=0;exitDy=0;" edge="1" parent="1" source="wAqun_xBV9L1JCdI_dO6-33" target="wAqun_xBV9L1JCdI_dO6-25">
          <mxGeometry width="100" height="100" relative="1" as="geometry">
            <mxPoint x="390" y="570" as="sourcePoint" />
            <mxPoint x="490" y="470" as="targetPoint" />
          </mxGeometry>
        </mxCell>
        <mxCell id="wAqun_xBV9L1JCdI_dO6-35" value="" style="edgeStyle=entityRelationEdgeStyle;fontSize=12;html=1;endArrow=ERmandOne;rounded=0;exitX=0;exitY=0.5;exitDx=0;exitDy=0;entryX=1;entryY=0.5;entryDx=0;entryDy=0;" edge="1" parent="1" source="wAqun_xBV9L1JCdI_dO6-33" target="wAqun_xBV9L1JCdI_dO6-22">
          <mxGeometry width="100" height="100" relative="1" as="geometry">
            <mxPoint x="390" y="570" as="sourcePoint" />
            <mxPoint x="490" y="470" as="targetPoint" />
          </mxGeometry>
        </mxCell>
        <mxCell id="wAqun_xBV9L1JCdI_dO6-36" value="Trưởng phòng" style="shape=rhombus;perimeter=rhombusPerimeter;whiteSpace=wrap;html=1;align=center;fontSize=12;" vertex="1" parent="1">
          <mxGeometry x="430" y="610" width="120" height="70" as="geometry" />
        </mxCell>
        <mxCell id="wAqun_xBV9L1JCdI_dO6-37" value="" style="edgeStyle=entityRelationEdgeStyle;fontSize=12;html=1;endArrow=ERmandOne;rounded=0;exitX=0;exitY=0.5;exitDx=0;exitDy=0;entryX=1;entryY=1;entryDx=0;entryDy=0;" edge="1" parent="1" source="wAqun_xBV9L1JCdI_dO6-36" target="wAqun_xBV9L1JCdI_dO6-22">
          <mxGeometry width="100" height="100" relative="1" as="geometry">
            <mxPoint x="470" y="520" as="sourcePoint" />
            <mxPoint x="340" y="520" as="targetPoint" />
          </mxGeometry>
        </mxCell>
        <mxCell id="wAqun_xBV9L1JCdI_dO6-38" value="" style="edgeStyle=entityRelationEdgeStyle;fontSize=12;html=1;endArrow=ERmandOne;rounded=0;exitX=1;exitY=0.5;exitDx=0;exitDy=0;entryX=0;entryY=1;entryDx=0;entryDy=0;" edge="1" parent="1" source="wAqun_xBV9L1JCdI_dO6-36" target="wAqun_xBV9L1JCdI_dO6-25">
          <mxGeometry width="100" height="100" relative="1" as="geometry">
            <mxPoint x="410" y="655" as="sourcePoint" />
            <mxPoint x="290" y="540" as="targetPoint" />
          </mxGeometry>
        </mxCell>
        <mxCell id="wAqun_xBV9L1JCdI_dO6-39" value="Nhân thân" style="whiteSpace=wrap;html=1;align=center;fontSize=12;" vertex="1" parent="1">
          <mxGeometry x="1140" y="490" width="100" height="40" as="geometry" />
        </mxCell>
        <mxCell id="wAqun_xBV9L1JCdI_dO6-40" value="Tên" style="ellipse;whiteSpace=wrap;html=1;align=center;fontSize=12;" vertex="1" parent="1">
          <mxGeometry x="1350" y="395" width="100" height="40" as="geometry" />
        </mxCell>
        <mxCell id="wAqun_xBV9L1JCdI_dO6-41" value="Ngày sinh" style="ellipse;whiteSpace=wrap;html=1;align=center;fontSize=12;" vertex="1" parent="1">
          <mxGeometry x="1350" y="480" width="100" height="40" as="geometry" />
        </mxCell>
        <mxCell id="wAqun_xBV9L1JCdI_dO6-42" value="Mối quan hệ" style="ellipse;whiteSpace=wrap;html=1;align=center;fontSize=12;" vertex="1" parent="1">
          <mxGeometry x="1350" y="570" width="100" height="40" as="geometry" />
        </mxCell>
        <mxCell id="wAqun_xBV9L1JCdI_dO6-43" value="BDS" style="whiteSpace=wrap;html=1;align=center;fontSize=12;" vertex="1" parent="1">
          <mxGeometry x="220" y="790" width="100" height="40" as="geometry" />
        </mxCell>
        <mxCell id="wAqun_xBV9L1JCdI_dO6-44" value="Mã số" style="ellipse;whiteSpace=wrap;html=1;align=center;fontStyle=4;fontSize=12;" vertex="1" parent="1">
          <mxGeometry x="-10" y="740" width="100" height="40" as="geometry" />
        </mxCell>
        <mxCell id="wAqun_xBV9L1JCdI_dO6-45" value="Địa chỉ" style="ellipse;whiteSpace=wrap;html=1;align=center;fontSize=12;" vertex="1" parent="1">
          <mxGeometry x="-10" y="840" width="100" height="40" as="geometry" />
        </mxCell>
        <mxCell id="wAqun_xBV9L1JCdI_dO6-46" value="" style="endArrow=none;html=1;rounded=0;fontSize=12;entryX=1;entryY=0;entryDx=0;entryDy=0;" edge="1" parent="1" source="wAqun_xBV9L1JCdI_dO6-40" target="wAqun_xBV9L1JCdI_dO6-39">
          <mxGeometry relative="1" as="geometry">
            <mxPoint x="370" y="710" as="sourcePoint" />
            <mxPoint x="530" y="710" as="targetPoint" />
          </mxGeometry>
        </mxCell>
        <mxCell id="wAqun_xBV9L1JCdI_dO6-47" value="" style="endArrow=none;html=1;rounded=0;fontSize=12;entryX=1;entryY=0.5;entryDx=0;entryDy=0;exitX=0;exitY=0.5;exitDx=0;exitDy=0;" edge="1" parent="1" source="wAqun_xBV9L1JCdI_dO6-41" target="wAqun_xBV9L1JCdI_dO6-39">
          <mxGeometry relative="1" as="geometry">
            <mxPoint x="887.4604313272202" y="755.1851320472974" as="sourcePoint" />
            <mxPoint x="770" y="810" as="targetPoint" />
          </mxGeometry>
        </mxCell>
        <mxCell id="wAqun_xBV9L1JCdI_dO6-48" value="" style="endArrow=none;html=1;rounded=0;fontSize=12;entryX=1;entryY=1;entryDx=0;entryDy=0;exitX=0.004;exitY=0.345;exitDx=0;exitDy=0;exitPerimeter=0;" edge="1" parent="1" source="wAqun_xBV9L1JCdI_dO6-42" target="wAqun_xBV9L1JCdI_dO6-39">
          <mxGeometry relative="1" as="geometry">
            <mxPoint x="897.4604313272202" y="765.1851320472974" as="sourcePoint" />
            <mxPoint x="780" y="820" as="targetPoint" />
          </mxGeometry>
        </mxCell>
        <mxCell id="wAqun_xBV9L1JCdI_dO6-49" value="Có" style="shape=rhombus;perimeter=rhombusPerimeter;whiteSpace=wrap;html=1;align=center;fontSize=12;" vertex="1" parent="1">
          <mxGeometry x="890" y="490" width="60" height="40" as="geometry" />
        </mxCell>
        <mxCell id="wAqun_xBV9L1JCdI_dO6-50" value="" style="edgeStyle=entityRelationEdgeStyle;fontSize=12;html=1;endArrow=ERmandOne;rounded=0;entryX=1;entryY=0.5;entryDx=0;entryDy=0;exitX=0;exitY=0.5;exitDx=0;exitDy=0;" edge="1" parent="1" source="wAqun_xBV9L1JCdI_dO6-49" target="wAqun_xBV9L1JCdI_dO6-25">
          <mxGeometry width="100" height="100" relative="1" as="geometry">
            <mxPoint x="400" y="760" as="sourcePoint" />
            <mxPoint x="500" y="660" as="targetPoint" />
          </mxGeometry>
        </mxCell>
        <mxCell id="wAqun_xBV9L1JCdI_dO6-52" value="" style="edgeStyle=entityRelationEdgeStyle;fontSize=12;html=1;endArrow=ERoneToMany;rounded=0;exitX=1;exitY=0.5;exitDx=0;exitDy=0;entryX=0;entryY=0.5;entryDx=0;entryDy=0;" edge="1" parent="1" source="wAqun_xBV9L1JCdI_dO6-49" target="wAqun_xBV9L1JCdI_dO6-39">
          <mxGeometry width="100" height="100" relative="1" as="geometry">
            <mxPoint x="940" y="520" as="sourcePoint" />
            <mxPoint x="1040" y="420" as="targetPoint" />
          </mxGeometry>
        </mxCell>
        <mxCell id="wAqun_xBV9L1JCdI_dO6-53" value="Chủ sở hữu" style="whiteSpace=wrap;html=1;align=center;fontSize=12;" vertex="1" parent="1">
          <mxGeometry x="480" y="790" width="100" height="40" as="geometry" />
        </mxCell>
      </root>
    </mxGraphModel>
  </diagram>
</mxfile>
